<svg id="Properties" xmlns="http://www.w3.org/2000/svg" viewBox="0 0 260.23 86.3"><defs><style>.cls-1{fill:#002b64;}.cls-2{fill:#88bc41;}</style></defs><title>NovusPropLogo</title><polygon class="cls-1" points="12.4 1.35 36.08 39.42 36.24 39.42 36.24 1.35 47.92 1.35 47.92 58.09 35.44 58.09 11.84 20.11 11.68 20.11 11.68 58.09 0 58.09 0 1.35 12.4 1.35"/><polygon class="cls-1" points="123.76 58.09 105.41 1.35 118.2 1.35 130.84 41.24 130.99 41.24 143.79 1.35 156.66 1.35 137.83 58.09 123.76 58.09"/><path class="cls-1" d="M202.62,53.76q-6.44,5.6-17.8,5.6-11.52,0-17.84-5.56t-6.32-17.16V1.35h12.48V36.64a25.83,25.83,0,0,0,.4,4.53,8.82,8.82,0,0,0,5.21,6.72A14.38,14.38,0,0,0,184.82,49q6.68,0,9.22-3t2.54-9.34V1.35h12.48V36.64q0,11.52-6.44,17.12"/><path class="cls-1" d="M225.58,44.1a9,9,0,0,0,2.74,3.22,11.8,11.8,0,0,0,4,1.83,18.89,18.89,0,0,0,4.77.6,24.28,24.28,0,0,0,3.58-.28,12.32,12.32,0,0,0,3.58-1.07A7.76,7.76,0,0,0,247,46.21a5.48,5.48,0,0,0,1.11-3.54,5,5,0,0,0-1.47-3.73,11.68,11.68,0,0,0-3.85-2.38,38.33,38.33,0,0,0-5.4-1.67q-3-.72-6.12-1.59a54,54,0,0,1-6.2-1.95,21.31,21.31,0,0,1-5.4-3,14,14,0,0,1-3.85-4.57,13.85,13.85,0,0,1-1.47-6.63,14.88,14.88,0,0,1,1.87-7.59,17,17,0,0,1,4.89-5.37A21.3,21.3,0,0,1,228,1a29.06,29.06,0,0,1,7.63-1,36.15,36.15,0,0,1,8.54,1,21.41,21.41,0,0,1,7.27,3.22,16.32,16.32,0,0,1,5,5.68,17.44,17.44,0,0,1,1.87,8.38H246.25a10.08,10.08,0,0,0-1.08-4.21,7.06,7.06,0,0,0-2.42-2.62,10.3,10.3,0,0,0-3.46-1.35,21.37,21.37,0,0,0-4.25-.4,14.6,14.6,0,0,0-3,.32,8.1,8.1,0,0,0-2.74,1.11,6.89,6.89,0,0,0-2,2,5.32,5.32,0,0,0-.8,3,5.1,5.1,0,0,0,.64,2.7,5.67,5.67,0,0,0,2.51,1.91,31.5,31.5,0,0,0,5.16,1.75q3.3.88,8.62,2.22,1.59.32,4.41,1.15a21.21,21.21,0,0,1,5.6,2.66,17,17,0,0,1,4.81,4.89,13.91,13.91,0,0,1,2,7.83,17.33,17.33,0,0,1-1.51,7.23,15.7,15.7,0,0,1-4.49,5.76A21.61,21.61,0,0,1,246.84,58a34.94,34.94,0,0,1-10.21,1.35,35.88,35.88,0,0,1-9.1-1.15,22.82,22.82,0,0,1-7.79-3.62,17.82,17.82,0,0,1-5.36-6.28,18.76,18.76,0,0,1-1.91-9.06h12.08a10.38,10.38,0,0,0,1,4.85"/><path class="cls-1" d="M100.46,29.72h-7.8v4.91h14.68a37.11,37.11,0,0,0,.32-4.67,38.7,38.7,0,0,0-.36-5.15H95.55Z"/><path class="cls-1" d="M66.86,29.72h-7.8L64,24.81H52.22A39,39,0,0,0,51.87,30a37.13,37.13,0,0,0,.32,4.67H66.86Z"/><path class="cls-1" d="M56.06,46.48a26.6,26.6,0,0,0,3.19,4.38,24.21,24.21,0,0,0,3.3,3L73,43.39H66.86V35.68Z"/><path class="cls-1" d="M100.26,50.86a26.52,26.52,0,0,0,3.19-4.38l-10.8-10.8v7.71H86.48L97,53.87a24.38,24.38,0,0,0,3.3-3"/><path class="cls-2" d="M84.66,59V34.63H74.85V59a33.44,33.44,0,0,0,4.91.35A33.93,33.93,0,0,0,84.66,59"/><path class="cls-1" d="M64.75,79.61H61.08l-1.31,6.21H56.18l3.67-17.27h7.52a5.07,5.07,0,0,1,3.86,1.34q1.26,1.34.67,4.14a6.72,6.72,0,0,1-2.47,4.32A8,8,0,0,1,64.75,79.61Zm1.41-8.06H62.79l-1.08,5.09h3.36A3.48,3.48,0,0,0,67.2,76a3.12,3.12,0,0,0,1.13-2,2,2,0,0,0-.3-1.92A2.61,2.61,0,0,0,66.15,71.54Z"/><path class="cls-1" d="M93.95,70.2a4.16,4.16,0,0,1,.58,1.45,4.58,4.58,0,0,1-.05,1.82,6.42,6.42,0,0,1-1.14,2.42,4.65,4.65,0,0,1-2.41,1.68,2.39,2.39,0,0,1,1.4,1.37,5.36,5.36,0,0,1-.08,2.7L92,82.79a9.73,9.73,0,0,0-.25,1.61,1.13,1.13,0,0,0,.45,1l-.08.43h-4q0-.57,0-.93a8.26,8.26,0,0,1,.16-1.49l.32-1.61q.33-1.65-.13-2.2A2.73,2.73,0,0,0,86.39,79H82.66l-1.43,6.77H77.71l3.67-17.27h8.47a7.09,7.09,0,0,1,2.7.45A3.26,3.26,0,0,1,93.95,70.2Zm-9.69,1.35-1,4.64h4.09a5,5,0,0,0,1.89-.28A2.52,2.52,0,0,0,90.75,74q.33-1.57-.6-2.11a3.55,3.55,0,0,0-1.7-.3Z"/><path class="cls-1" d="M114.09,84.28a9.08,9.08,0,0,1-6.08,2q-3.7,0-5.24-2-2.1-2.47-1.1-7.12A11.57,11.57,0,0,1,105.81,70a9.08,9.08,0,0,1,6.08-2q3.7,0,5.24,2,2.11,2.38,1.1,7.13A11.85,11.85,0,0,1,114.09,84.28Zm.53-7.12a6.37,6.37,0,0,0-.31-4.49,3.26,3.26,0,0,0-3.06-1.59,5.2,5.2,0,0,0-3.76,1.58,8.66,8.66,0,0,0-2.23,4.5,6.27,6.27,0,0,0,.32,4.5,3.3,3.3,0,0,0,3.08,1.58,5.16,5.16,0,0,0,3.74-1.58A8.71,8.71,0,0,0,114.62,77.16Z"/><path class="cls-1" d="M133.31,79.61h-3.67l-1.31,6.21h-3.59l3.67-17.27h7.52a5.07,5.07,0,0,1,3.86,1.34q1.26,1.34.67,4.14A6.72,6.72,0,0,1,138,78.34,8,8,0,0,1,133.31,79.61Zm1.41-8.06h-3.36l-1.08,5.09h3.36a3.48,3.48,0,0,0,2.12-.62,3.12,3.12,0,0,0,1.13-2,2,2,0,0,0-.3-1.92A2.61,2.61,0,0,0,134.72,71.54Z"/><path class="cls-1" d="M162,71.6h-9.14l-.77,3.67h8.39l-.64,3h-8.39l-.94,4.44H160l-.66,3.11H146.3L150,68.54h12.67Z"/><path class="cls-1" d="M184,70.2a4.16,4.16,0,0,1,.58,1.45,4.58,4.58,0,0,1-.05,1.82,6.42,6.42,0,0,1-1.14,2.42A4.65,4.65,0,0,1,181,77.57a2.39,2.39,0,0,1,1.4,1.37,5.36,5.36,0,0,1-.08,2.7l-.25,1.16a9.73,9.73,0,0,0-.25,1.61,1.13,1.13,0,0,0,.45,1l-.08.43h-4q0-.57,0-.93a8.26,8.26,0,0,1,.16-1.49l.32-1.61q.33-1.65-.13-2.2a2.73,2.73,0,0,0-2.06-.55h-3.73l-1.43,6.77H167.8l3.67-17.27h8.47a7.09,7.09,0,0,1,2.7.45A3.26,3.26,0,0,1,184,70.2Zm-9.69,1.35-1,4.64h4.09a5,5,0,0,0,1.89-.28,2.52,2.52,0,0,0,1.5-1.95q.33-1.57-.6-2.11a3.55,3.55,0,0,0-1.7-.3Z"/><path class="cls-1" d="M206.79,68.54l-.66,3.06H201l-3,14.21h-3.63l3-14.21h-5.19l.66-3.06Z"/><path class="cls-1" d="M214.06,85.82h-3.59l3.67-17.27h3.59Z"/><path class="cls-1" d="M238.73,71.6h-9.14l-.77,3.67h8.39l-.64,3h-8.39l-.94,4.44h9.56l-.66,3.11H223l3.67-17.27h12.67Z"/><path class="cls-1" d="M248.21,80.49a3.09,3.09,0,0,0,.27,1.77q.66,1.07,2.79,1.07A6.92,6.92,0,0,0,253.4,83a2.62,2.62,0,0,0,1.93-2,1.18,1.18,0,0,0-.47-1.32,6.47,6.47,0,0,0-2.18-.81l-1.75-.41a9.35,9.35,0,0,1-3.45-1.32q-1.49-1.2-.95-3.74a6.41,6.41,0,0,1,2.51-3.86A8.49,8.49,0,0,1,254.34,68a6.28,6.28,0,0,1,4.35,1.45,4.25,4.25,0,0,1,1.13,4.2h-3.47a2,2,0,0,0-.88-2.21,4,4,0,0,0-2-.43,4.56,4.56,0,0,0-2.35.56,2.32,2.32,0,0,0-1.17,1.57,1.19,1.19,0,0,0,.53,1.38,8.16,8.16,0,0,0,2.1.71l2.82.71a6.09,6.09,0,0,1,2.68,1.25,3.53,3.53,0,0,1,.8,3.53,6.43,6.43,0,0,1-2.65,3.93,9,9,0,0,1-5.45,1.56q-3.37,0-5-1.54a4.26,4.26,0,0,1-1-4.24Z"/><path class="cls-1" d="M65.94,22.84l6.94-6.94L62.57,5.59a24.41,24.41,0,0,0-3.31,3.07A27,27,0,0,0,56.12,13Z"/><path class="cls-1" d="M86.64,15.9l6.94,6.94L103.39,13a27,27,0,0,0-3.13-4.36A24.79,24.79,0,0,0,97,5.59Z"/><path class="cls-1" d="M84.66,13.93V.35A33.49,33.49,0,0,0,79.76,0a32.63,32.63,0,0,0-4.91.36V13.93L79.76,9Z"/></svg>